Coordinates
version=1
nRows=11
nColumns=63
inDegrees=yes

Units are S.I. units (second, meters, Newtons, ...)
If the header above contains a line with 'inDegrees', this indicates whether rotational values are in degrees (yes) or radians (no).

endheader
time	pelvis_tilt	pelvis_list	pelvis_rotation	pelvis_tx	pelvis_ty	pelvis_tz	hip_flexion_r	hip_adduction_r	hip_rotation_r	knee_angle_r	knee_angle_r_beta	ankle_angle_r	subtalar_angle_r	mtp_angle_r	hip_flexion_l	hip_adduction_l	hip_rotation_l	knee_angle_l	knee_angle_l_beta	ankle_angle_l	subtalar_angle_l	mtp_angle_l	L5_S1_Flex_Ext	L5_S1_Lat_Bending	L5_S1_axial_rotation	L4_L5_Flex_Ext	L4_L5_Lat_Bending	L4_L5_axial_rotation	L3_L4_Flex_Ext	L3_L4_Lat_Bending	L3_L4_axial_rotation	L2_L3_Flex_Ext	L2_L3_Lat_Bending	L2_L3_axial_rotation	L1_L2_Flex_Ext	L1_L2_Lat_Bending	L1_L2_axial_rotation	L1_T12_Flex_Ext	L1_T12_Lat_Bending	L1_T12_axial_rotation	Abs_r3	Abs_r2	Abs_r1	Abs_t1	Abs_t2	neck_flexion	neck_bending	neck_rotation	arm_flex_r	arm_add_r	arm_rot_r	elbow_flex_r	pro_sup_r	wrist_flex_r	wrist_dev_r	arm_flex_l	arm_add_l	arm_rot_l	elbow_flex_l	pro_sup_l	wrist_flex_l	wrist_dev_l
      4.06779661	      1.06695080	     -2.30816027	    103.58236081	      0.26076087	      0.92660666	      0.45379308	    -10.07329521	      1.76567067	    -10.56536868	      8.41937218	      0.14694577	     30.54722809	     -0.58434605	      0.00000000	     -7.65276953	     -4.26070501	      6.16472678	      6.26895286	      0.10941387	     33.73799568	     10.55087779	      0.00000000	     -0.18187219	     -0.06387419	     -1.24387399	     -0.33775484	     -0.08495267	     -1.32161612	     -0.29879782	     -0.15530370	     -1.32161612	     -0.20786172	     -0.15530370	     -1.08838975	     -0.16888651	     -0.13025224	     -1.01064762	     -0.10392177	     -0.09894112	     -0.93290550	     -1.29909486	     -0.72255758	     -6.91805400	      0.00000000	      0.00000000	     17.54863508	      2.30543500	     -4.93320956	     21.58712247	    -20.75836126	    -10.11384245	    136.14907636	     85.95999047	      7.07089196	     10.44374467	     -4.82687940	    -32.73875829	     46.78409665	    100.66119688	     87.72873178	     -0.91811415	     18.52377023
      4.08474576	      1.14080552	     -2.36837570	    103.72237233	      0.26085984	      0.92599325	      0.45375859	     -9.98477506	      1.88115680	    -10.54354748	      8.33943211	      0.14555055	     30.76982615	     -0.60069143	      0.00000000	     -7.60518160	     -4.37558117	      6.13091864	      6.24304852	      0.10896175	     33.77435249	     10.55967269	      0.00000000	     -0.18075371	     -0.05691195	     -1.22978971	     -0.33567771	     -0.07569290	     -1.30665156	     -0.29696027	     -0.13837572	     -1.30665156	     -0.20658341	     -0.13837572	     -1.07606599	     -0.16784789	     -0.11605485	     -0.99920414	     -0.10328267	     -0.08815661	     -0.92234228	     -1.29110566	     -0.64379938	     -6.83972142	      0.00000000	      0.00000000	     17.97602920	      2.24427943	     -4.95156866	     20.74941732	    -20.76449396	     -9.89213917	    135.31287233	     86.01858369	      6.99555664	     10.49697594	     -4.69637005	    -32.89923875	     46.77134688	    100.41920397	     87.77141623	     -0.85695802	     18.62649131
      4.10169492	      1.67522430	     -2.65664236	    104.70028429	      0.25976940	      0.92510974	      0.45438318	     -9.55913674	      2.51487985	    -11.14851013	      8.21855533	      0.14344085	     30.79381802	     -0.76811435	      0.00000000	     -6.97108441	     -5.01599789	      6.23732561	      6.34984287	      0.11082567	     34.02866469	     11.26041690	      0.00000000	     -0.14728592	     -0.00628178	     -1.18861923	     -0.27352469	     -0.00835476	     -1.26290794	     -0.24197605	     -0.01527351	     -1.26290794	     -0.16833308	     -0.01527351	     -1.04004183	     -0.13676971	     -0.01280980	     -0.96575313	     -0.08415918	     -0.00973047	     -0.89146443	     -1.05204863	     -0.07106070	     -6.61074360	      0.00000000	      0.00000000	     18.89341958	      2.01167185	     -6.18573548	     18.52103085	    -21.53080914	    -10.40845183	    134.82073977	     85.75221743	      4.51074177	      8.28906032	     -3.24995634	    -32.87646452	     47.50198688	     99.81977295	     88.02500623	      2.11574959	     20.12780146
      4.11864407	      1.93452934	     -2.79168091	    104.87304088	      0.25968933	      0.92450045	      0.45473782	     -9.23967202	      2.72145362	    -11.51730682	      8.30372879	      0.14492741	     31.04135866	     -0.22393339	      0.00000000	     -6.78040954	     -5.30566920	      5.72456948	      6.26452626	      0.10933661	     34.15037718	     11.65974737	      0.00000000	     -0.14315118	      0.02406142	     -1.06215461	     -0.26584606	      0.03200169	     -1.12853927	     -0.23518308	      0.05850294	     -1.12853927	     -0.16360749	      0.05850294	     -0.92938528	     -0.13293019	      0.04906605	     -0.86300062	     -0.08179659	      0.03727114	     -0.79661596	     -1.02251460	      0.27218760	     -5.90738530	      0.00000000	      0.00000000	     19.76607935	      1.50172097	     -6.81090816	     16.44029189	    -22.03009257	    -10.51743235	    134.56621627	     85.46015735	      2.05292579	      9.09205471	     -2.51795782	    -32.70510721	     46.95709134	     99.03429600	     88.22993289	      6.43253902	     21.33431549
      4.13559322	      2.31361393	     -3.01334069	    105.32563315	      0.25918068	      0.92397443	      0.45554382	     -8.72888715	      3.05652692	    -11.88784867	      8.49528766	      0.14827074	     31.11228363	     -0.20359094	      0.00000000	     -6.42207722	     -5.70319264	      5.71057325	      6.09136284	      0.10631434	     34.14658278	     11.80453695	      0.00000000	     -0.11739448	      0.07066100	     -0.98283122	     -0.21801329	      0.09397912	     -1.04425817	     -0.19286739	      0.17180514	     -1.04425817	     -0.13417015	      0.17180514	     -0.85997731	     -0.10901251	      0.14409190	     -0.79855036	     -0.06707920	      0.10945388	     -0.73712341	     -0.83853702	      0.79933132	     -5.46621238	      0.00000000	      0.00000000	     20.64297133	      1.39015184	     -6.69411008	     14.08989299	    -22.54547466	    -11.01575583	    134.12434867	     85.18184124	      1.66603435	     10.20242563	     -1.91303029	    -32.51531172	     46.75433151	     98.16854246	     88.56839566	      7.91732143	     21.60157460
      4.15254237	      2.59691009	     -3.03064406	    105.25136332	      0.25920670	      0.92389425	      0.45683536	     -8.36465212	      3.16604309	    -12.74667821	      8.82554875	      0.15403488	     31.43683897	      1.28214546	      0.00000000	     -6.27895478	     -5.98188275	      4.98735498	      6.06817695	      0.10590967	     34.18557700	     12.16942715	      0.00000000	     -0.11858623	      0.10670227	     -0.62259755	     -0.22022649	      0.14191402	     -0.66150990	     -0.19482532	      0.25943589	     -0.66150990	     -0.13553220	      0.25943589	     -0.54477286	     -0.11011917	      0.21758726	     -0.50586051	     -0.06776017	      0.16528181	     -0.46694816	     -0.84704958	      1.20703739	     -3.46270079	      0.00000000	      0.00000000	     21.08983618	      0.46504321	     -8.27585928	     10.75613847	    -23.37293512	    -12.68909133	    134.39023214	     83.81314182	      0.75465844	     14.51404810	      0.41144932	    -31.93462233	     47.39676941	     96.43065416	     88.89137265	     14.29320802	     22.48129908
      4.16949153	      2.87785756	     -3.08295008	    105.36069952	      0.25928022	      0.92400181	      0.45866636	     -7.93832369	      3.35620191	    -13.17944674	      9.12530985	      0.15926670	     31.47144762	      1.68322357	      0.00000000	     -6.03754740	     -6.27048298	      4.64128413	      5.98179546	      0.10440203	     33.99955553	     12.39365011	      0.00000000	     -0.10818308	      0.14153596	     -0.31091299	     -0.20090680	      0.18824283	     -0.33034505	     -0.17773398	      0.34413053	     -0.33034505	     -0.12364244	      0.34413053	     -0.27204887	     -0.10045881	      0.28862013	     -0.25261680	     -0.06181581	      0.21923920	     -0.23318474	     -0.77274091	      1.60108308	     -1.72920477	      0.00000000	      0.00000000	     21.41410056	     -0.18774376	     -9.15263188	      7.22749382	    -24.04026050	    -13.88098295	    133.86495836	     81.52613894	     -0.20933946	     17.39272976	      2.78464642	    -31.47342891	     48.78237820	     94.37923957	     89.13212787	     16.65076367	     21.08984276
      4.18644068	      2.89935910	     -2.98947705	    104.74981751	      0.25994331	      0.92446247	      0.46020745	     -7.69404439	      3.16777089	    -13.28703450	      9.56957167	      0.16702053	     31.72218225	      2.62279199	      0.00000000	     -6.26309393	     -6.24418802	      3.76426495	      5.64729637	      0.09856392	     33.63691895	     12.66574432	      0.00000000	     -0.12109114	      0.14843695	      0.13030767	     -0.22487835	      0.19742114	      0.13845190	     -0.19894063	      0.36090960	      0.13845190	     -0.13839506	      0.36090960	      0.11401921	     -0.11244523	      0.30269263	      0.10587498	     -0.06919148	      0.22992884	      0.09773075	     -0.86494189	      1.67914847	      0.72473216	      0.00000000	      0.00000000	     21.48363707	     -1.05657380	    -10.39460813	      3.44484556	    -24.68578695	    -14.86337617	    132.65106657	     77.28017405	     -1.63504666	     19.36928932	      4.99432827	    -30.86288288	     50.29100130	     91.77763637	     89.25019069	     16.65063822	     18.10242264
      4.20338983	      2.91088879	     -2.93896244	    104.30976264	      0.26018936	      0.92504327	      0.46185685	     -7.43058221	      2.92454211	    -14.07255221	     10.01317053	      0.17476279	     32.10324020	      4.24488246	      0.00000000	     -6.39560357	     -6.20233182	      2.91333291	      5.31549433	      0.09277288	     33.31493076	     13.30173970	      0.00000000	     -0.12466984	      0.15829626	      0.43367865	     -0.23152436	      0.21053402	      0.46078357	     -0.20482008	      0.38488152	      0.46078357	     -0.14248516	      0.38488152	      0.37946882	     -0.11576841	      0.32279773	      0.35236391	     -0.07123635	      0.24520090	      0.32525899	     -0.89050419	      1.79067892	      2.41199057	      0.00000000	      0.00000000	     21.44930235	     -1.70431126	    -10.95367925	      0.11448357	    -25.28011119	    -15.03342156	    130.20203719	     71.18495776	     -2.72081800	     19.19524287	      6.62808798	    -30.38489277	     52.30439715	     88.50119375	     89.25528550	     10.46770308	     11.89177871
      4.22033898	      2.92769303	     -2.94630704	    103.68729143	      0.26031523	      0.92567528	      0.46321592	     -7.11660100	      2.65058750	    -14.27112821	     10.42366195	      0.18192722	     32.48337704	      5.35719755	      0.00000000	     -6.63344088	     -6.08075446	      2.46963710	      4.73660548	      0.08266936	     32.85462407	     13.24969488	      0.00000000	     -0.12108728	      0.16920454	      0.60597833	     -0.22487118	      0.22504204	      0.64385198	     -0.19893429	      0.41140391	      0.64385198	     -0.13839065	      0.41140391	      0.53023104	     -0.11244164	      0.34504189	      0.49235740	     -0.06918927	      0.26209783	      0.45448375	     -0.86491431	      1.91407557	      3.37026969	      0.00000000	      0.00000000	     21.41425502	     -2.04839690	    -10.76275412	     -2.41079714	    -25.76785825	    -14.13064710	    126.67629520	     65.07179400	     -4.19842435	     17.32119862	      6.93092936	    -29.29896919	     52.18733544	     84.70090650	     89.13600959	      5.34798909	      8.10817230
      4.23728814	      2.99139748	     -3.01567608	    103.12009038	      0.26016251	      0.92623499	      0.46444989	     -6.75446337	      2.40636512	    -14.54735653	     10.74277061	      0.18749672	     32.96496269	      6.50944929	      0.00000000	     -6.82390129	     -5.97107998	      2.40429513	      4.10075105	      0.07157161	     32.45633538	     12.83056352	      0.00000000	     -0.11504163	      0.18546449	      0.60633270	     -0.21364381	      0.24666777	      0.64422849	     -0.18900189	      0.45093835	      0.64422849	     -0.13148108	      0.45093835	      0.53054111	     -0.10682766	      0.37819918	      0.49264532	     -0.06573479	      0.28728449	      0.45474952	     -0.82173085	      2.09801137	      3.37224055	      0.00000000	      0.00000000	     21.46572625	     -2.17791201	     -9.96054751	     -3.85443918	    -25.97051151	    -12.71775106	    122.41722987	     59.51669660	     -5.10289757	     15.82233876	      6.40948768	    -28.01605865	     50.66196559	     80.77870124	     88.91175671	     -0.11918483	      6.99028041
